<svg xmlns="http://www.w3.org/2000/svg" viewBox="1116 314 1031 993" fill="#C2E927">
  <path fill-rule="evenodd" d="M1181.63 667.488 1181.63 965.429C1181.63 1026.44 1181.63 1067.58 1184.02 1099.5 1186.33 1130.65 1190.52 1146.61 1195.67 1157.67 1208.02 1184.37 1227.73 1206.07 1251.97 1219.67 1262.02 1225.35 1276.51 1229.96 1304.72 1232.51 1333.7 1235.14 1371.32 1235.14 1426.45 1235.14L1838.48 1235.14C1893.87 1235.14 1931.23 1235.14 1960.21 1232.44 1988.49 1229.96 2002.98 1225.35 2013.03 1219.67 2037.27 1206.07 2056.97 1184.37 2069.32 1157.67 2074.48 1146.61 2078.66 1130.65 2080.98 1099.5 2083.36 1067.58 2083.36 1026.22 2083.36 965.429L2083.36 667.488ZM1342.72 454.814 1922.41 454.814C1940.19 454.814 1954.61 470.695 1954.61 490.283 1954.61 509.872 1940.19 525.752 1922.41 525.752L1342.72 525.752C1324.94 525.752 1310.52 509.872 1310.52 490.283 1310.52 470.695 1324.94 454.814 1342.72 454.814ZM1426.32 383.803C1370.93 383.803 1333.57 383.803 1304.59 386.428 1276.32 388.981 1261.82 393.594 1251.78 399.268 1227.56 412.888 1207.85 434.596 1195.48 461.269 1190.33 472.335 1186.14 488.296 1183.82 519.367 1182.34 540.295 1181.89 565.122 1181.7 596.69L2083.04 596.69C2082.85 564.98 2082.46 540.223 2080.92 519.367 2078.6 488.296 2074.41 472.335 2069.26 461.269 2056.89 434.596 2037.18 412.888 2012.96 399.268 2002.92 393.594 1988.42 388.981 1960.28 386.428 1931.29 383.803 1893.61 383.803 1838.54 383.803ZM1425.29 314 1837.51 314 1909.01 314.283C1966.97 315.348 2003.69 319.036 2033.32 333.083L2041.24 337.197C2073.16 354.677 2099.95 381.725 2118.53 415.23L2125.94 429.843C2141.72 463.894 2145.71 506.102 2146.68 575.267L2147 654.008 2147 966.139C2147 1085.32 2147 1144.76 2125.94 1190.3 2107.42 1230.31 2077.89 1262.84 2041.56 1283.23 2010.65 1300.61 1972.32 1305.01 1909.52 1306.08L1908.49 1306.65 1837 1307 1424.78 1307C1316.57 1307 1262.6 1307 1221.24 1283.8L1207.98 1275.64C1178.03 1254.86 1153.36 1225.56 1137.13 1190.52L1133.39 1181.79C1116 1137.1 1116 1078.22 1116 966.139L1116 654.008 1116.32 575.267C1117.29 505.747 1121.28 463.894 1137.06 429.843L1144.47 415.23C1163.39 382.031 1190.09 355.074 1221.76 337.197 1262.98 314 1317.09 314 1425.29 314Z"/>
  <path fill-rule="evenodd" stroke="#C2E927" stroke-width="73.9064" stroke-linejoin="round" d="M1347.39 898.445 1490.75 778.224C1536.24 740.071 1595.6 722.236 1655.77 728.643L1682.12 731.449 1700.78 753.701 1422.04 987.454ZM1529.24 897.549 1593.57 843.606 1836.16 1132.89 1771.84 1186.83Z"/>
</svg>
